Tool - Ænima - Custom Remaster by MC Lurken


1 - Stinkfist
2 - Eulogy
3 - H.
4 - Useful Idiot
5 - Forty Six & 2
6 - Message to Harry Manback
7 - Hooker with a Penis
8 - Intermission
9 - jimmy
10 - Die Eier von Satan
11 - Pushit
12 - Cesaro Summability
13 - Ænima
14 - (-) Ions
15 - Third Eye


Setup:
-HP G72-250US
-Intel Core i3 M350 2.27GHz
-8Gb PC3-10700 RAM
-Win7 64-bit SP1
-SB X-Fi Surround 5.1


Process:
-Original 16-bit/44.1kHz files joined in Wavelab 6
-Remove DC offset and save as 64-bit float/44.1kHz
-Resample to 384kHz in Wavelab w/crystal resampler ultra(slow) relax background priority
-Create new 64-bit/384kHz master recording in Wavelab


As reported in Wavelab:
-Original 16-bit/44.1kHz: Apparent Bit Resolution = 16, Peak = -0.048db
-With DC Offset Removed: Apparent Bit Resolution = 19, Peak = -0.048db
-64-bit/384kHz Recording: Apparent Bit Resolution = 39, Peak = 0.802db


-Resample new 64-bit/384kHz master recording to 64-bit/96kHz in Wavelab w/crystal resampler ultra(slow) relax background priority
-Apply MBIT+ 24-bit Dither in Wavelab w/Izotope Ozone 5 VST Plugin
-Flac encode level 0 with Trader's Little Helper
-Tag and pic with xrecode II



foobar2000 1.2.1 / Dynamic Range Meter 1.1.1
log date: 2013-01-16 23:15:02

--------------------------------------------------------------------------------
Analyzed: ? / ?
--------------------------------------------------------------------------------

DR         Peak         RMS     Duration Track
--------------------------------------------------------------------------------
DR8        0.00 dB    -9.77 dB      5:11 ?-01 - Stinkfist
DR8        0.00 dB   -10.64 dB      8:29 ?-02 - Eulogy
DR7        0.00 dB   -10.91 dB      6:07 ?-03 - H.
DR15      -2.59 dB   -24.44 dB      0:39 ?-04 - Useful Idiot
DR7        0.00 dB    -9.71 dB      6:04 ?-05 - Forty Six & 2
DR18     -10.68 dB   -31.29 dB      1:53 ?-06 - Message to Harry Manback
DR7        0.00 dB    -8.88 dB      4:34 ?-07 - Hooker with a Penis
DR12     -11.50 dB   -26.71 dB      0:56 ?-08 - Intermission
DR7        0.00 dB    -9.54 dB      5:24 ?-09 - jimmy
DR9       -1.73 dB   -12.58 dB      2:17 ?-10 - Die Eier von Satan
DR7        0.00 dB   -10.27 dB      9:56 ?-11 - Pushit
DR12      -0.35 dB   -16.82 dB      1:26 ?-12 - Cesaro Summability
DR8        0.00 dB    -9.44 dB      6:40 ?-13 - Ænima
DR13      -0.42 dB   -18.72 dB      4:00 ?-14 - (-) Ions
DR8        0.00 dB   -10.58 dB     13:48 ?-15 - Third Eye
--------------------------------------------------------------------------------

Number of tracks:  15
Official DR value: DR10

Samplerate:        96000 Hz
Channels:          2
Bits per sample:   24
Bitrate:           4608 kbps
Codec:             PCM



enjoy :)